<?xml version="1.0" standalone="no"?>
<!DOCTYPE svg PUBLIC "-//W3C//DTD SVG 20010904//EN"
 "http://www.w3.org/TR/2001/REC-SVG-20010904/DTD/svg10.dtd">
<svg version="1.0" xmlns="http://www.w3.org/2000/svg"
 width="16.000000pt" height="16.000000pt" viewBox="0 0 16.000000 16.000000"
 preserveAspectRatio="xMidYMid meet">
<metadata>
Created by potrace 1.11, written by Peter Selinger 2001-2013
</metadata>
<g transform="translate(0.000000,16.000000) scale(0.002286,-0.002286)"
fill="#000000" stroke="none">
<path d="M973 6959 c-46 -29 -61 -84 -38 -133 25 -53 47 -60 185 -62 69 -2
131 -3 138 -3 10 -1 12 -246 11 -1216 l-1 -1215 -27 -1 c-233 -6 -426 -82
-578 -226 -155 -147 -234 -317 -267 -573 -3 -19 -9 -64 -15 -100 -5 -36 -21
-141 -35 -235 -36 -243 -65 -432 -71 -463 -2 -15 -9 -61 -15 -102 -6 -41 -12
-86 -15 -100 -2 -14 -7 -41 -9 -60 -3 -19 -10 -66 -16 -105 -6 -38 -13 -86
-16 -105 -6 -49 -13 -96 -24 -160 -5 -30 -12 -75 -15 -100 -3 -25 -10 -70 -15
-100 -14 -82 -18 -110 -25 -169 -4 -30 -9 -63 -11 -75 -4 -20 -16 -97 -28
-178 -3 -21 -9 -55 -12 -75 -3 -21 -10 -67 -16 -103 -5 -36 -12 -81 -15 -100
-3 -19 -13 -89 -23 -155 -17 -107 -20 -291 -7 -345 25 -99 42 -149 70 -207 41
-82 50 -97 104 -165 125 -156 312 -263 518 -297 38 -6 1075 -10 2795 -10 2896
0 2801 -1 2935 44 275 94 478 321 546 610 15 66 20 224 8 305 -17 117 -19 136
-24 159 -2 12 -14 87 -25 166 -11 79 -23 154 -25 167 -3 13 -7 43 -10 68 -3
25 -8 56 -10 70 -2 14 -6 39 -9 55 -3 17 -10 64 -16 105 -6 41 -15 100 -20
130 -15 98 -21 134 -26 170 -2 19 -9 60 -14 90 -5 30 -11 73 -14 95 -14 100
-18 122 -28 155 -15 49 -53 80 -96 80 -20 0 -24 14 -39 120 -3 25 -18 122 -32
217 l-27 171 33 16 c36 17 55 52 55 101 1 27 -18 162 -42 305 -5 30 -12 73
-15 95 -34 235 -74 349 -166 474 -150 202 -361 317 -619 337 -35 2 -66 6 -68
9 -6 5 -8 2425 -2 2426 3 0 64 1 135 2 108 2 135 5 158 21 57 38 65 106 18
158 l-29 33 -1141 0 -1141 0 -26 -26 c-50 -50 -40 -138 20 -171 12 -7 75 -13
150 -14 70 -2 131 -5 134 -8 3 -3 5 -549 5 -1213 l0 -1208 -526 -3 -526 -2 2
1216 2 1216 135 2 c149 2 168 8 194 62 25 54 4 113 -49 138 -29 14 -165 16
-1146 16 -1105 0 -1114 -1 -1146 -21z m296 -3572 c0 -111 0 -490 1 -842 l1
-640 24 -67 c32 -94 65 -147 139 -220 72 -72 165 -123 259 -143 90 -18 782
-18 863 1 206 47 363 202 410 406 12 52 15 203 15 885 0 763 2 823 17 824 104
6 1025 2 1029 -5 3 -5 6 -374 6 -820 0 -639 3 -825 13 -876 20 -97 69 -185
145 -261 72 -73 125 -108 215 -141 57 -21 75 -22 458 -24 441 -3 485 2 599 63
76 41 187 156 226 234 59 120 58 116 57 1012 l-1 817 28 0 c56 0 82 -28 92
-97 4 -21 10 -63 15 -93 6 -30 12 -71 14 -90 6 -47 15 -103 26 -170 5 -30 12
-71 14 -90 7 -56 42 -293 51 -340 2 -14 7 -43 10 -65 3 -22 19 -125 35 -230
16 -104 31 -210 35 -235 3 -25 10 -70 15 -100 5 -30 12 -75 15 -100 5 -40 17
-115 45 -295 5 -33 12 -76 14 -95 9 -65 17 -115 21 -140 3 -14 7 -43 10 -65 3
-22 8 -56 11 -75 3 -19 8 -46 10 -60 2 -14 6 -38 9 -55 2 -16 7 -48 10 -70 3
-22 13 -83 21 -135 18 -109 20 -161 5 -188 -26 -50 122 -47 -2757 -47 -2590 1
-2690 1 -2717 19 -33 22 -46 66 -36 126 4 25 10 68 13 95 4 28 8 61 11 75 2
14 7 43 10 65 4 22 8 49 10 60 1 11 6 40 9 65 3 25 11 72 17 105 18 97 14 136
-19 165 -16 14 -36 30 -44 35 -15 9 -15 20 2 120 10 61 21 130 24 155 4 25 8
54 10 65 3 11 5 26 5 33 1 6 14 12 30 12 17 0 42 11 59 25 34 29 38 42 62 200
6 44 13 91 15 105 2 14 11 75 20 135 9 61 18 121 20 135 2 14 7 43 9 65 3 22
7 49 10 60 2 11 7 45 10 75 4 30 11 78 16 105 5 28 11 68 14 90 7 55 55 385
60 410 2 11 7 43 10 70 17 124 29 151 74 161 15 3 32 7 37 8 31 9 33 -7 34
-207z"/>
</g>
</svg>
