<?xml version="1.0" encoding="UTF-8"?>
<svg width="512px" height="513px" viewBox="0 0 512 513" version="1.1" xmlns="http://www.w3.org/2000/svg" xmlns:xlink="http://www.w3.org/1999/xlink">
    <!-- Generator: Sketch 41.2 (35397) - http://www.bohemiancoding.com/sketch -->
    <title>Artboard</title>
    <desc>Created with Sketch.</desc>
    <defs></defs>
    <g id="Page-1" stroke="none" stroke-width="1" fill="none" fill-rule="evenodd">
        <g id="Artboard" fill="#086788">
            <g id="strategie" transform="translate(0.000000, 4.000000)">
                <g id="Layer_1">
                    <path d="M492.973,159.748 L477.796,155.953 L477.796,16.843 C477.796,7.707 470.364,0.275 461.228,0.275 L444.126,0.275 C436.356,0.275 429.837,5.658 428.056,12.886 C363.416,72.597 269.575,94.338 221.796,94.338 L76.426,94.338 C59.023,94.338 44.049,104.923 37.595,119.991 L25.119,119.991 C11.268,119.992 0,131.26 0,145.111 L0,247.725 C0,261.576 11.268,272.844 25.119,272.844 L37.595,272.844 C44.049,287.912 59.023,298.497 76.426,298.497 L78.458,298.497 L117.897,487.803 C114.082,488.419 111.165,491.718 111.165,495.707 C111.165,500.134 114.754,503.724 119.182,503.724 L230.347,503.724 C234.774,503.724 238.364,500.135 238.364,495.707 C238.364,491.279 234.775,487.69 230.347,487.69 L228.315,487.69 L188.9,298.496 L221.796,298.496 C269.576,298.496 363.416,320.237 428.056,379.948 C429.837,387.176 436.356,392.559 444.126,392.559 L461.228,392.559 C470.364,392.559 477.796,385.127 477.796,375.991 L477.796,236.881 L492.973,233.086 C504.176,230.286 512,220.265 512,208.717 L512,184.116 C512,172.569 504.176,162.549 492.973,159.748 Z M34.219,256.81 L25.12,256.81 C20.11,256.81 16.034,252.734 16.034,247.724 L16.034,145.111 C16.034,140.101 20.11,136.025 25.12,136.025 L34.219,136.025 C34.217,136.203 34.205,136.38 34.205,136.559 L34.205,256.275 C34.205,256.455 34.216,256.632 34.219,256.81 Z M211.936,487.691 L134.251,487.691 L94.836,298.497 L172.521,298.497 L211.936,487.691 Z M205.228,282.464 L76.426,282.464 C61.986,282.464 50.238,270.716 50.238,256.276 L50.238,136.56 C50.238,122.12 61.986,110.372 76.426,110.372 L205.228,110.372 L205.228,282.464 Z M427.557,358.258 C400.096,335.693 366.18,316.836 328.431,303.246 C291.742,290.039 252.875,282.464 221.795,282.464 L221.261,282.464 L221.261,110.372 L221.795,110.372 C252.875,110.372 291.742,102.797 328.431,89.59 C366.18,76 400.096,57.144 427.557,34.578 L427.557,358.258 Z M461.762,375.992 C461.762,376.287 461.523,376.526 461.228,376.526 L444.126,376.526 C443.831,376.526 443.592,376.287 443.592,375.992 L443.592,16.843 C443.592,16.548 443.831,16.309 444.126,16.309 L461.228,16.309 C461.523,16.309 461.762,16.548 461.762,16.843 L461.762,375.992 Z M495.967,208.718 C495.967,212.894 493.138,216.519 489.085,217.532 L477.795,220.354 L477.795,172.48 L489.085,175.302 C493.137,176.315 495.967,179.94 495.967,184.117 L495.967,208.718 Z" id="Shape"></path>
                </g>
            </g>
        </g>
    </g>
</svg>