<?xml version="1.0" encoding="UTF-8"?>
<svg width="512px" height="512px" viewBox="0 0 512 512" version="1.1" xmlns="http://www.w3.org/2000/svg" xmlns:xlink="http://www.w3.org/1999/xlink">
    <!-- Generator: Sketch 41.2 (35397) - http://www.bohemiancoding.com/sketch -->
    <title>content</title>
    <desc>Created with Sketch.</desc>
    <defs></defs>
    <g id="Page-1" stroke="none" stroke-width="1" fill="none" fill-rule="evenodd">
        <g id="Artboard" fill="#086788">
            <g id="content">
                <g id="Group">
                    <path d="M471.148936,125.282043 C475.661072,125.282043 479.319149,121.625055 479.319149,117.11183 L479.319149,81.7021277 L503.829787,81.7021277 C508.341923,81.7021277 512,78.0451404 512,73.5319149 L512,8.17021277 C512,3.65698723 508.341923,0 503.829787,0 L438.468085,0 C433.955949,0 430.297872,3.65698723 430.297872,8.17021277 L430.297872,32.6808511 L81.7021277,32.6808511 L81.7021277,8.17021277 C81.7021277,3.65698723 78.0440511,0 73.5319149,0 L8.17021277,0 C3.6580766,0 0,3.65698723 0,8.17021277 L0,73.5319149 C0,78.0451404 3.6580766,81.7021277 8.17021277,81.7021277 L32.6808511,81.7021277 L32.6808511,430.297872 L8.17021277,430.297872 C3.6580766,430.297872 0,433.95486 0,438.468085 L0,503.829787 C0,508.343013 3.6580766,512 8.17021277,512 L73.5319149,512 C78.0440511,512 81.7021277,508.343013 81.7021277,503.829787 L81.7021277,479.319149 L430.297872,479.319149 L430.297872,503.829787 C430.297872,508.343013 433.955949,512 438.468085,512 L503.829787,512 C508.341923,512 512,508.343013 512,503.829787 L512,438.468085 C512,433.95486 508.341923,430.297872 503.829787,430.297872 L479.319149,430.297872 L479.319149,149.792681 C479.319149,145.279455 475.661072,141.622468 471.148936,141.622468 C466.6368,141.622468 462.978723,145.279455 462.978723,149.792681 L462.978723,430.297872 L438.468085,430.297872 C433.955949,430.297872 430.297872,433.95486 430.297872,438.468085 L430.297872,462.978723 L81.7021277,462.978723 L81.7021277,438.468085 C81.7021277,433.95486 78.0440511,430.297872 73.5319149,430.297872 L49.0212766,430.297872 L49.0212766,81.7021277 L73.5319149,81.7021277 C78.0440511,81.7021277 81.7021277,78.0451404 81.7021277,73.5319149 L81.7021277,49.0212766 L430.297872,49.0212766 L430.297872,73.5319149 C430.297872,78.0451404 433.955949,81.7021277 438.468085,81.7021277 L462.978723,81.7021277 L462.978723,117.11183 C462.978723,121.623966 466.6368,125.282043 471.148936,125.282043 Z M446.638298,446.638298 L495.659574,446.638298 L495.659574,495.659574 L446.638298,495.659574 L446.638298,446.638298 Z M65.3617021,495.659574 L16.3404255,495.659574 L16.3404255,446.638298 L65.3617021,446.638298 L65.3617021,495.659574 Z M65.3617021,65.3617021 L16.3404255,65.3617021 L16.3404255,16.3404255 L65.3617021,16.3404255 L65.3617021,65.3617021 Z M446.638298,16.3404255 L495.659574,16.3404255 L495.659574,65.3617021 L446.638298,65.3617021 L446.638298,16.3404255 Z" id="Shape"></path>
                    <path d="M403.06383,117.11183 C403.06383,112.598604 399.405753,108.941617 394.893617,108.941617 L117.106383,108.941617 C112.594247,108.941617 108.93617,112.598604 108.93617,117.11183 L108.93617,255.998911 C108.93617,260.512136 112.594247,264.169123 117.106383,264.169123 L394.893617,264.169123 C399.405753,264.169123 403.06383,260.512136 403.06383,255.998911 L403.06383,117.11183 Z M125.276596,130.331234 L237.730315,186.55537 L125.276596,242.779506 L125.276596,130.331234 Z M151.716494,125.282043 L360.282417,125.282043 L256,177.421072 L151.716494,125.282043 Z M256,195.689668 L360.283506,247.828698 L151.716494,247.828698 L256,195.689668 Z M274.269685,186.55537 L386.723404,130.331234 L386.723404,242.780596 L274.269685,186.55537 Z" id="Shape"></path>
                    <path d="M239.659574,386.723404 L117.106383,386.723404 C112.594247,386.723404 108.93617,390.380391 108.93617,394.893617 C108.93617,399.406843 112.594247,403.06383 117.106383,403.06383 L239.659574,403.06383 C244.171711,403.06383 247.829787,399.406843 247.829787,394.893617 C247.829787,390.380391 244.171711,386.723404 239.659574,386.723404 Z" id="Shape"></path>
                    <path d="M394.893617,386.723404 L272.340426,386.723404 C267.828289,386.723404 264.170213,390.380391 264.170213,394.893617 C264.170213,399.406843 267.828289,403.06383 272.340426,403.06383 L394.893617,403.06383 C399.405753,403.06383 403.06383,399.406843 403.06383,394.893617 C403.06383,390.380391 399.405753,386.723404 394.893617,386.723404 Z" id="Shape"></path>
                    <path d="M239.659574,352 L117.106383,352 C112.594247,352 108.93617,355.656987 108.93617,360.170213 C108.93617,364.683438 112.594247,368.340426 117.106383,368.340426 L239.659574,368.340426 C244.171711,368.340426 247.829787,364.683438 247.829787,360.170213 C247.829787,355.656987 244.171711,352 239.659574,352 Z" id="Shape"></path>
                    <path d="M394.893617,352 L272.340426,352 C267.828289,352 264.170213,355.656987 264.170213,360.170213 C264.170213,364.683438 267.828289,368.340426 272.340426,368.340426 L394.893617,368.340426 C399.405753,368.340426 403.06383,364.683438 403.06383,360.170213 C403.06383,355.656987 399.405753,352 394.893617,352 Z" id="Shape"></path>
                    <path d="M239.659574,317.276596 L117.106383,317.276596 C112.594247,317.276596 108.93617,320.933583 108.93617,325.446809 C108.93617,329.960034 112.594247,333.617021 117.106383,333.617021 L239.659574,333.617021 C244.171711,333.617021 247.829787,329.960034 247.829787,325.446809 C247.829787,320.933583 244.171711,317.276596 239.659574,317.276596 Z" id="Shape"></path>
                    <path d="M394.893617,317.276596 L272.340426,317.276596 C267.828289,317.276596 264.170213,320.933583 264.170213,325.446809 C264.170213,329.960034 267.828289,333.617021 272.340426,333.617021 L394.893617,333.617021 C399.405753,333.617021 403.06383,329.960034 403.06383,325.446809 C403.06383,320.933583 399.405753,317.276596 394.893617,317.276596 Z" id="Shape"></path>
                    <path d="M394.893617,282.552102 L117.106383,282.552102 C112.594247,282.552102 108.93617,286.209089 108.93617,290.722315 C108.93617,295.23554 112.594247,298.892528 117.106383,298.892528 L394.893617,298.892528 C399.405753,298.892528 403.06383,295.23554 403.06383,290.722315 C403.06383,286.209089 399.405753,282.552102 394.893617,282.552102 Z" id="Shape"></path>
                </g>
            </g>
        </g>
    </g>
</svg>