<?xml version="1.0" encoding="UTF-8"?>
<svg width="512px" height="513px" viewBox="0 0 512 513" version="1.1" xmlns="http://www.w3.org/2000/svg" xmlns:xlink="http://www.w3.org/1999/xlink">
    <!-- Generator: Sketch 41.2 (35397) - http://www.bohemiancoding.com/sketch -->
    <title>Artboard</title>
    <desc>Created with Sketch.</desc>
    <defs></defs>
    <g id="Page-1" stroke="none" stroke-width="1" fill="none" fill-rule="evenodd">
        <g id="Artboard" fill="#086788">
            <g id="data" transform="translate(0.000000, 81.000000)">
                <g id="Layer_1">
                    <path d="M509.652,45.341 C506.522,42.21 501.446,42.21 498.315,45.341 L469.243,74.412 L469.243,33.906 C469.243,15.34 454.138,0.236 435.573,0.236 L76.426,0.236 C57.86,0.236 42.756,15.34 42.756,33.906 L42.756,210.156 L2.348,250.569 C-0.783,253.7 -0.782,258.776 2.348,261.906 C3.914,263.471 5.965,264.254 8.016,264.254 C10.067,264.254 12.119,263.472 13.685,261.906 L42.756,232.833 L42.756,264.787 C42.756,283.353 57.86,298.457 76.426,298.457 L203.781,298.457 L197.902,333.73 L187.59,333.73 C183.163,333.73 179.573,337.319 179.573,341.747 C179.573,346.174 183.162,349.764 187.59,349.764 L324.408,349.764 C328.835,349.764 332.425,346.175 332.425,341.747 C332.425,337.32 328.836,333.73 324.408,333.73 L314.096,333.73 L308.217,298.457 L435.572,298.457 C454.138,298.457 469.242,283.352 469.242,264.787 L469.242,97.086 L509.65,56.679 C512.783,53.548 512.783,48.472 509.652,45.341 Z M214.157,333.731 L220.036,298.458 L291.965,298.458 L297.844,333.731 L214.157,333.731 Z M453.21,264.788 C453.21,274.513 445.298,282.425 435.573,282.425 L76.426,282.425 C66.701,282.425 58.789,274.513 58.789,264.788 L58.789,216.799 L76.96,198.627 L76.96,256.238 C76.96,260.665 80.549,264.255 84.977,264.255 L427.022,264.255 C431.449,264.255 435.039,260.666 435.039,256.238 L435.039,131.29 L453.21,113.119 L453.21,264.788 L453.21,264.788 Z M384.267,145.607 C379.79,145.607 375.588,146.789 371.944,148.85 L321.809,103.729 C323.135,100.672 323.874,97.304 323.874,93.766 C323.874,79.915 312.606,68.647 298.755,68.647 C284.904,68.647 273.636,79.915 273.636,93.766 C273.636,98.933 275.206,103.741 277.891,107.737 L221.399,181.178 C218.84,180.296 216.097,179.811 213.243,179.811 C208.247,179.811 203.59,181.283 199.673,183.809 L151.329,145.133 C152.312,142.446 152.85,139.545 152.85,136.521 C152.85,122.67 141.582,111.402 127.731,111.402 C113.88,111.402 102.613,122.67 102.613,136.521 C102.613,140.525 103.56,144.311 105.234,147.674 L92.993,159.915 L92.993,50.475 L419.005,50.475 L419.005,124.65 L395.424,148.23 C392.061,146.555 388.273,145.607 384.267,145.607 Z M393.352,170.726 C393.352,175.736 389.276,179.812 384.266,179.812 C379.256,179.812 375.18,175.736 375.18,170.726 C375.18,165.716 379.256,161.64 384.266,161.64 C389.276,161.64 393.352,165.716 393.352,170.726 Z M307.841,93.765 C307.841,98.775 303.765,102.851 298.755,102.851 C293.745,102.851 289.669,98.775 289.669,93.765 C289.669,88.755 293.745,84.679 298.755,84.679 C303.765,84.68 307.841,88.755 307.841,93.765 Z M222.33,204.93 C222.33,209.94 218.254,214.016 213.244,214.016 C208.234,214.016 204.158,209.94 204.158,204.93 C204.158,199.92 208.234,195.844 213.244,195.844 C218.254,195.844 222.33,199.92 222.33,204.93 Z M136.819,136.521 C136.819,141.531 132.743,145.607 127.733,145.607 C122.723,145.607 118.647,141.531 118.647,136.521 C118.647,131.511 122.723,127.435 127.733,127.435 C132.743,127.435 136.819,131.511 136.819,136.521 Z M116.569,159.014 C119.935,160.691 123.724,161.64 127.732,161.64 C132.728,161.64 137.385,160.168 141.302,157.642 L189.646,196.318 C188.663,199.005 188.125,201.906 188.125,204.93 C188.125,218.781 199.393,230.049 213.244,230.049 C227.095,230.049 238.363,218.781 238.363,204.93 C238.363,199.762 236.793,194.954 234.107,190.956 L290.598,117.516 C293.158,118.398 295.901,118.883 298.756,118.883 C303.233,118.883 307.435,117.701 311.078,115.64 L361.213,160.761 C359.887,163.817 359.148,167.185 359.148,170.724 C359.148,184.575 370.416,195.843 384.267,195.843 C398.118,195.843 409.386,184.575 409.386,170.724 C409.386,166.718 408.438,162.93 406.763,159.566 L419.006,147.323 L419.006,248.219 L92.994,248.219 L92.994,182.591 L116.569,159.014 Z M453.21,90.446 L435.039,108.617 L435.039,42.46 C435.039,38.033 431.45,34.443 427.022,34.443 L84.977,34.443 C80.55,34.443 76.96,38.032 76.96,42.46 L76.96,175.952 L58.789,194.123 L58.789,33.907 C58.789,24.182 66.701,16.27 76.426,16.27 L435.573,16.27 C445.298,16.27 453.21,24.182 453.21,33.907 L453.21,90.446 Z" id="Shape"></path>
                </g>
            </g>
        </g>
    </g>
</svg>