<?xml version="1.0" encoding="UTF-8"?>
<svg width="409px" height="411px" viewBox="0 0 409 411" version="1.1" xmlns="http://www.w3.org/2000/svg" xmlns:xlink="http://www.w3.org/1999/xlink">
    <!-- Generator: Sketch 41.2 (35397) - http://www.bohemiancoding.com/sketch -->
    <title>Artboard</title>
    <desc>Created with Sketch.</desc>
    <defs></defs>
    <g id="Page-1" stroke="none" stroke-width="1" fill="none" fill-rule="evenodd">
        <g id="Artboard" fill="#FFFFFF">
            <g id="instagram" transform="translate(28.000000, 26.000000)">
                <g id="g5758">
                    <path d="M290.4272,9.99999999e-06 L69.5754,9.99999999e-06 C31.2091,9.99999999e-06 0.0001,31.20321 0.0001,69.57556 L0.0001,143.05719 L0.0001,290.43479 C0.0001,328.79809 31.2091,359.99999 69.5754,359.99999 L290.435,359.99999 C328.7961,359.99999 359.9999,328.79809 359.9999,290.43479 L359.9999,143.04421 L359.9999,69.55217 C359.9869,31.19151 328.7909,9.99999997e-06 290.4272,9.99999997e-06 L290.4272,9.99999999e-06 Z M310.3845,41.48605 L318.3394,41.45625 L318.3394,49.37493 L318.3394,102.47661 L257.5243,102.67147 L257.3165,41.65629 L310.3845,41.48612 L310.3845,41.48605 Z M128.6148,143.04421 C140.1535,127.09122 158.8548,116.6356 180.0006,116.6356 C201.1466,116.6356 219.8543,127.09122 231.3697,143.04421 C238.8738,153.45696 243.3695,166.20791 243.3695,179.99416 C243.3695,214.93197 214.9168,243.36049 179.9928,243.36049 C145.0558,243.36049 116.6332,214.93197 116.6332,179.99416 C116.6462,166.20791 121.121,153.45696 128.6148,143.04421 Z M324.9148,290.41929 C324.9148,309.45479 309.444,324.91149 290.4259,324.91149 L69.5754,324.91149 C50.5494,324.91149 35.0761,309.45609 35.0761,290.41929 L35.0761,143.04421 L88.817,143.04421 C84.1732,154.45849 81.5661,166.92626 81.5661,179.99416 C81.5661,234.25324 125.7181,278.42819 180.0019,278.42819 C234.2883,278.42819 278.4351,234.25195 278.4351,179.99416 C278.4351,166.92495 275.81,154.45849 271.1739,143.04421 L324.9161,143.04421 L324.9161,290.41929 L324.9148,290.41929 Z" id="path9-6"></path>
                </g>
            </g>
        </g>
    </g>
</svg>