<?xml version="1.0" encoding="UTF-8"?>
<svg width="409px" height="411px" viewBox="0 0 409 411" version="1.1" xmlns="http://www.w3.org/2000/svg" xmlns:xlink="http://www.w3.org/1999/xlink">
    <!-- Generator: Sketch 41.2 (35397) - http://www.bohemiancoding.com/sketch -->
    <title>Artboard</title>
    <desc>Created with Sketch.</desc>
    <defs></defs>
    <g id="Page-1" stroke="none" stroke-width="1" fill="none" fill-rule="evenodd">
        <g id="Artboard" fill="#FFFFFF">
            <g id="twitter" transform="translate(7.000000, 43.000000)">
                <g id="g3763">
                    <g id="layer1_2_" transform="translate(0.514875, 0.372825)">
                        <path d="M400.485126,38.5686072 C385.768344,45.0993121 369.95791,49.506545 353.35738,51.492424 C370.292672,41.3360714 383.307272,25.249033 389.437964,6.09523005 C373.582139,15.4997856 356.014202,22.32128 337.317151,26.003667 C322.35639,10.0513847 301.020957,0.089364555 277.424459,0.089364555 C232.099608,0.089364555 195.352336,36.836637 195.352336,82.1558142 C195.352336,88.5858067 196.080019,94.845581 197.481482,100.859957 C129.27363,97.4286422 68.8107073,64.7651881 28.3342379,15.1068653 C21.2687641,27.2278196 17.2232449,41.3204681 17.2232449,56.3691754 C17.2232449,84.8410063 31.7059767,109.955283 53.7279563,124.672065 C40.282137,124.243683 27.6306693,120.555622 16.5579754,114.410745 C16.5537199,114.748344 16.5537199,115.094454 16.5537199,115.440565 C16.5537199,155.199281 44.8439848,188.364879 82.3813533,195.916893 C75.4946087,197.782201 68.2418949,198.792162 60.7664789,198.792162 C55.4712744,198.792162 50.3349402,198.263067 45.3291067,197.315519 C55.7691563,229.912304 86.0793437,253.64214 121.982618,254.304572 C93.903707,276.31946 58.5167617,289.440446 20.0587964,289.440446 C13.4415639,289.440446 6.90944043,289.050362 0.48512187,288.282962 C36.8111042,311.577323 79.9458146,325.16499 126.28772,325.16499 C277.231545,325.16499 359.778861,200.117027 359.778861,91.6738486 C359.778861,88.1077773 359.696589,84.5714942 359.544811,81.0493959 C375.5666,69.4759768 389.48903,55.0287071 400.485126,38.5686072 L400.485126,38.5686072 Z" id="path5_1_"></path>
                    </g>
                </g>
            </g>
        </g>
    </g>
</svg>