<?xml version="1.0" encoding="UTF-8"?>
<svg width="512px" height="513px" viewBox="0 0 512 513" version="1.1" xmlns="http://www.w3.org/2000/svg" xmlns:xlink="http://www.w3.org/1999/xlink">
    <!-- Generator: Sketch 41.2 (35397) - http://www.bohemiancoding.com/sketch -->
    <title>Artboard</title>
    <desc>Created with Sketch.</desc>
    <defs></defs>
    <g id="Page-1" stroke="none" stroke-width="1" fill="none" fill-rule="evenodd">
        <g id="Artboard" fill="#086788">
            <g id="content" transform="translate(32.000000, 32.000000)">
                <g id="Group">
                    <path d="M413.175532,109.866479 C417.132464,109.866479 420.340426,106.659472 420.340426,102.701585 L420.340426,71.6489362 L441.835106,71.6489362 C445.792038,71.6489362 449,68.4419298 449,64.4840426 L449,7.16489362 C449,3.20700638 445.792038,0 441.835106,0 L384.515957,0 C380.559026,0 377.351064,3.20700638 377.351064,7.16489362 L377.351064,28.6595745 L71.6489362,28.6595745 L71.6489362,7.16489362 C71.6489362,3.20700638 68.4409745,0 64.4840426,0 L7.16489362,0 C3.2079617,0 0,3.20700638 0,7.16489362 L0,64.4840426 C0,68.4419298 3.2079617,71.6489362 7.16489362,71.6489362 L28.6595745,71.6489362 L28.6595745,377.351064 L7.16489362,377.351064 C3.2079617,377.351064 0,380.55807 0,384.515957 L0,441.835106 C0,445.792994 3.2079617,449 7.16489362,449 L64.4840426,449 C68.4409745,449 71.6489362,445.792994 71.6489362,441.835106 L71.6489362,420.340426 L377.351064,420.340426 L377.351064,441.835106 C377.351064,445.792994 380.559026,449 384.515957,449 L441.835106,449 C445.792038,449 449,445.792994 449,441.835106 L449,384.515957 C449,380.55807 445.792038,377.351064 441.835106,377.351064 L420.340426,377.351064 L420.340426,131.36116 C420.340426,127.403272 417.132464,124.196266 413.175532,124.196266 C409.2186,124.196266 406.010638,127.403272 406.010638,131.36116 L406.010638,377.351064 L384.515957,377.351064 C380.559026,377.351064 377.351064,380.55807 377.351064,384.515957 L377.351064,406.010638 L71.6489362,406.010638 L71.6489362,384.515957 C71.6489362,380.55807 68.4409745,377.351064 64.4840426,377.351064 L42.9893617,377.351064 L42.9893617,71.6489362 L64.4840426,71.6489362 C68.4409745,71.6489362 71.6489362,68.4419298 71.6489362,64.4840426 L71.6489362,42.9893617 L377.351064,42.9893617 L377.351064,64.4840426 C377.351064,68.4419298 380.559026,71.6489362 384.515957,71.6489362 L406.010638,71.6489362 L406.010638,102.701585 C406.010638,106.658517 409.2186,109.866479 413.175532,109.866479 Z M391.680851,391.680851 L434.670213,391.680851 L434.670213,434.670213 L391.680851,434.670213 L391.680851,391.680851 Z M57.3191489,434.670213 L14.3297872,434.670213 L14.3297872,391.680851 L57.3191489,391.680851 L57.3191489,434.670213 Z M57.3191489,57.3191489 L14.3297872,57.3191489 L14.3297872,14.3297872 L57.3191489,14.3297872 L57.3191489,57.3191489 Z M391.680851,14.3297872 L434.670213,14.3297872 L434.670213,57.3191489 L391.680851,57.3191489 L391.680851,14.3297872 Z" id="Shape"></path>
                    <path d="M353.468085,102.701585 C353.468085,98.7436979 350.260123,95.5366915 346.303191,95.5366915 L102.696809,95.5366915 C98.7398766,95.5366915 95.5319149,98.7436979 95.5319149,102.701585 L95.5319149,224.499045 C95.5319149,228.456932 98.7398766,231.663938 102.696809,231.663938 L346.303191,231.663938 C350.260123,231.663938 353.468085,228.456932 353.468085,224.499045 L353.468085,102.701585 Z M109.861702,114.294383 L208.478343,163.600315 L109.861702,212.906247 L109.861702,114.294383 Z M133.048253,109.866479 L315.950791,109.866479 L224.5,155.589964 L133.048253,109.866479 Z M224.5,171.610666 L315.951747,217.334151 L133.048253,217.334151 L224.5,171.610666 Z M240.521657,163.600315 L339.138298,114.294383 L339.138298,212.907202 L240.521657,163.600315 Z" id="Shape"></path>
                    <path d="M210.170213,339.138298 L102.696809,339.138298 C98.7398766,339.138298 95.5319149,342.345304 95.5319149,346.303191 C95.5319149,350.261079 98.7398766,353.468085 102.696809,353.468085 L210.170213,353.468085 C214.127145,353.468085 217.335106,350.261079 217.335106,346.303191 C217.335106,342.345304 214.127145,339.138298 210.170213,339.138298 Z" id="Shape"></path>
                    <path d="M346.303191,339.138298 L238.829787,339.138298 C234.872855,339.138298 231.664894,342.345304 231.664894,346.303191 C231.664894,350.261079 234.872855,353.468085 238.829787,353.468085 L346.303191,353.468085 C350.260123,353.468085 353.468085,350.261079 353.468085,346.303191 C353.468085,342.345304 350.260123,339.138298 346.303191,339.138298 Z" id="Shape"></path>
                    <path d="M210.170213,308.6875 L102.696809,308.6875 C98.7398766,308.6875 95.5319149,311.894506 95.5319149,315.852394 C95.5319149,319.810281 98.7398766,323.017287 102.696809,323.017287 L210.170213,323.017287 C214.127145,323.017287 217.335106,319.810281 217.335106,315.852394 C217.335106,311.894506 214.127145,308.6875 210.170213,308.6875 Z" id="Shape"></path>
                    <path d="M346.303191,308.6875 L238.829787,308.6875 C234.872855,308.6875 231.664894,311.894506 231.664894,315.852394 C231.664894,319.810281 234.872855,323.017287 238.829787,323.017287 L346.303191,323.017287 C350.260123,323.017287 353.468085,319.810281 353.468085,315.852394 C353.468085,311.894506 350.260123,308.6875 346.303191,308.6875 Z" id="Shape"></path>
                    <path d="M210.170213,278.236702 L102.696809,278.236702 C98.7398766,278.236702 95.5319149,281.443709 95.5319149,285.401596 C95.5319149,289.359483 98.7398766,292.566489 102.696809,292.566489 L210.170213,292.566489 C214.127145,292.566489 217.335106,289.359483 217.335106,285.401596 C217.335106,281.443709 214.127145,278.236702 210.170213,278.236702 Z" id="Shape"></path>
                    <path d="M346.303191,278.236702 L238.829787,278.236702 C234.872855,278.236702 231.664894,281.443709 231.664894,285.401596 C231.664894,289.359483 234.872855,292.566489 238.829787,292.566489 L346.303191,292.566489 C350.260123,292.566489 353.468085,289.359483 353.468085,285.401596 C353.468085,281.443709 350.260123,278.236702 346.303191,278.236702 Z" id="Shape"></path>
                    <path d="M346.303191,247.784949 L102.696809,247.784949 C98.7398766,247.784949 95.5319149,250.991955 95.5319149,254.949843 C95.5319149,258.90773 98.7398766,262.114736 102.696809,262.114736 L346.303191,262.114736 C350.260123,262.114736 353.468085,258.90773 353.468085,254.949843 C353.468085,250.991955 350.260123,247.784949 346.303191,247.784949 Z" id="Shape"></path>
                </g>
            </g>
        </g>
    </g>
</svg>