<?xml version="1.0" encoding="iso-8859-1"?>
<!-- Generator: Adobe Illustrator 19.0.0, SVG Export Plug-In . SVG Version: 6.00 Build 0)  -->
<svg version="1.1" id="Layer_1" xmlns="http://www.w3.org/2000/svg" xmlns:xlink="http://www.w3.org/1999/xlink" x="0px" y="0px"
	 viewBox="0 0 512 512" style="enable-background:new 0 0 512 512;" xml:space="preserve">
<g>
	<g>
		<path d="M509.652,126.341c-3.13-3.131-8.206-3.131-11.337,0l-29.072,29.071v-40.506c0-18.566-15.105-33.67-33.67-33.67H76.426
			c-18.566,0-33.67,15.104-33.67,33.67v176.25L2.348,331.569c-3.131,3.131-3.13,8.207,0,11.337c1.566,1.565,3.617,2.348,5.668,2.348
			s4.103-0.782,5.669-2.348l29.071-29.073v31.954c0,18.566,15.104,33.67,33.67,33.67h127.355l-5.879,35.273h-10.312
			c-4.427,0-8.017,3.589-8.017,8.017c0,4.427,3.589,8.017,8.017,8.017h136.818c4.427,0,8.017-3.589,8.017-8.017
			c0-4.427-3.589-8.017-8.017-8.017h-10.312l-5.879-35.273h127.355c18.566,0,33.67-15.105,33.67-33.67V178.086l40.408-40.407
			C512.783,134.548,512.783,129.472,509.652,126.341z M214.157,414.731l5.879-35.273h71.929l5.879,35.273H214.157z M453.21,345.788
			c0,9.725-7.912,17.637-17.637,17.637H76.426c-9.725,0-17.637-7.912-17.637-17.637v-47.989l18.171-18.172v57.611
			c0,4.427,3.589,8.017,8.017,8.017h342.045c4.427,0,8.017-3.589,8.017-8.017V212.29l18.171-18.171V345.788z M384.267,226.607
			c-4.477,0-8.679,1.182-12.323,3.243l-50.135-45.121c1.326-3.057,2.065-6.425,2.065-9.963c0-13.851-11.268-25.119-25.119-25.119
			s-25.119,11.268-25.119,25.119c0,5.167,1.57,9.975,4.255,13.971l-56.492,73.441c-2.559-0.882-5.302-1.367-8.156-1.367
			c-4.996,0-9.653,1.472-13.57,3.998l-48.344-38.676c0.983-2.687,1.521-5.588,1.521-8.612c0-13.851-11.268-25.119-25.119-25.119
			s-25.118,11.268-25.118,25.119c0,4.004,0.947,7.79,2.621,11.153l-12.241,12.241v-109.44h326.012v74.175l-23.581,23.58
			C392.061,227.555,388.273,226.607,384.267,226.607z M393.352,251.726c0,5.01-4.076,9.086-9.086,9.086s-9.086-4.076-9.086-9.086
			s4.076-9.086,9.086-9.086S393.352,246.716,393.352,251.726z M307.841,174.765c0,5.01-4.076,9.086-9.086,9.086
			c-5.01,0-9.086-4.076-9.086-9.086c0-5.01,4.076-9.086,9.086-9.086C303.765,165.68,307.841,169.755,307.841,174.765z
			 M222.33,285.93c0,5.01-4.076,9.086-9.086,9.086s-9.086-4.076-9.086-9.086s4.076-9.086,9.086-9.086S222.33,280.92,222.33,285.93z
			 M136.819,217.521c0,5.01-4.076,9.086-9.086,9.086c-5.01,0-9.086-4.076-9.086-9.086s4.076-9.086,9.086-9.086
			C132.743,208.435,136.819,212.511,136.819,217.521z M116.569,240.014c3.366,1.677,7.155,2.626,11.163,2.626
			c4.996,0,9.653-1.472,13.57-3.998l48.344,38.676c-0.983,2.687-1.521,5.588-1.521,8.612c0,13.851,11.268,25.119,25.119,25.119
			s25.119-11.268,25.119-25.119c0-5.168-1.57-9.976-4.256-13.974l56.491-73.44c2.56,0.882,5.303,1.367,8.158,1.367
			c4.477,0,8.679-1.182,12.322-3.243l50.135,45.121c-1.326,3.056-2.065,6.424-2.065,9.963c0,13.851,11.268,25.119,25.119,25.119
			s25.119-11.268,25.119-25.119c0-4.006-0.948-7.794-2.623-11.158l12.243-12.243v100.896H92.994v-65.628L116.569,240.014z
			 M453.21,171.446l-18.171,18.171V123.46c0-4.427-3.589-8.017-8.017-8.017H84.977c-4.427,0-8.017,3.589-8.017,8.017v133.492
			l-18.171,18.171V114.907c0-9.725,7.912-17.637,17.637-17.637h359.147c9.725,0,17.637,7.912,17.637,17.637V171.446z"/>
	</g>
</g>
<g>
</g>
<g>
</g>
<g>
</g>
<g>
</g>
<g>
</g>
<g>
</g>
<g>
</g>
<g>
</g>
<g>
</g>
<g>
</g>
<g>
</g>
<g>
</g>
<g>
</g>
<g>
</g>
<g>
</g>
</svg>
