<?xml version="1.0" encoding="UTF-8"?>
<svg width="167px" height="167px" viewBox="0 0 167 167" version="1.1" xmlns="http://www.w3.org/2000/svg" xmlns:xlink="http://www.w3.org/1999/xlink">
    <!-- Generator: Sketch 41.2 (35397) - http://www.bohemiancoding.com/sketch -->
    <title>balloons</title>
    <desc>Created with Sketch.</desc>
    <defs></defs>
    <g id="Page-1" stroke="none" stroke-width="1" fill="none" fill-rule="evenodd">
        <g id="balloons">
            <g id="Group">
                <path d="M116.81117,127.015936 C118.544417,127.841343 120.442177,128.270213 122.40567,128.270213 C124.369164,128.270213 126.266213,127.841343 127.999815,127.016291 L122.40567,118.670911 L116.81117,127.015936 Z" id="Shape" fill="#EF476F"></path>
                <path d="M113.438481,110.191219 C116.35956,110.873787 119.376574,111.219868 122.40567,111.219868 C144.055266,111.219868 161.668436,93.6066979 161.668436,71.9571021 C161.668436,58.2286362 154.343177,45.3127851 142.5512,38.2490404 C141.312913,37.5074894 140.897189,35.9195681 141.595391,34.6674234 C139.15577,33.4095936 136.576509,32.3855638 133.887453,31.6216277 C137.459121,38.9852617 139.464543,47.2443 139.464543,55.962766 C139.464543,80.2598447 123.898366,100.986321 102.216436,108.703143 C104.750217,110.098836 107.44247,111.242253 110.261928,112.094309 C110.633591,110.712117 112.035326,109.864326 113.438481,110.191219 Z" id="Shape" fill="#EF476F"></path>
                <path d="M75.3351213,126.228904 C77.8312383,127.570234 80.6126766,128.270213 83.5014213,128.270213 C86.390166,128.270213 89.1716043,127.570234 91.6677213,126.22926 L83.5014213,114.046787 L75.3351213,126.228904 Z" id="Shape" fill="#FFD166"></path>
                <path d="M39.0001851,127.016291 C40.7337872,127.841343 42.6308362,128.270213 44.5943298,128.270213 C46.5578234,128.270213 48.455583,127.841343 50.1888298,127.015936 L44.5943298,118.670911 L39.0001851,127.016291 Z" id="Shape" fill="#118AB2"></path>
                <path d="M27.5390106,55.962766 C27.5390106,47.2439447 29.5444319,38.9849064 33.1164553,31.620917 C30.426334,32.3852085 27.8456511,33.4095936 25.4053191,34.668134 C26.1028106,35.9199234 25.6867319,37.507134 24.4491553,38.2486851 C12.6571787,45.3124298 5.33191915,58.2282809 5.33191915,71.9567468 C5.33191915,93.6063426 22.9450894,111.219513 44.5946851,111.219513 C47.6237809,111.219513 50.6411511,110.873432 53.5618745,110.190864 C54.9636085,109.864326 56.3674745,110.712472 56.738783,112.095019 C59.5596617,111.242964 62.2526255,110.099191 64.7874723,108.703143 C43.1051872,100.986677 27.5390106,80.2598447 27.5390106,55.962766 Z" id="Shape" fill="#118AB2"></path>
                <path d="M134.134755,55.962766 C134.134755,28.0435638 111.420979,5.32978723 83.5017766,5.32978723 C55.5825745,5.32978723 32.8687979,28.0435638 32.8687979,55.962766 C32.8687979,83.8819681 55.5825745,106.595745 83.5017766,106.595745 C111.420979,106.595745 134.134755,83.8819681 134.134755,55.962766 Z M44.9503596,45.389534 C44.0069872,48.8261809 43.5283723,52.3836362 43.5283723,55.962766 C43.5283723,57.4348532 42.335566,58.6276596 40.8634787,58.6276596 C39.3913915,58.6276596 38.1985851,57.4348532 38.1985851,55.962766 C38.1985851,51.9067979 38.7408021,47.8746362 39.8106681,43.9785617 C40.2004532,42.559417 41.667566,41.7237064 43.086,42.1142021 C44.5055,42.5039872 45.3401447,43.9703894 44.9503596,45.389534 Z M48.7856745,36.1654489 C48.2932021,37.0253213 47.3946,37.5064234 46.4704149,37.5064234 C46.0212915,37.5064234 45.5661277,37.3930766 45.1486277,37.1539468 C43.8712553,36.4223447 43.428883,34.793917 44.1601298,33.5172553 C52.2340468,19.4178362 67.3091723,10.6595745 83.5017766,10.6595745 C84.9738638,10.6595745 86.1666702,11.8523809 86.1666702,13.3244681 C86.1666702,14.7965553 84.9738638,15.9893617 83.5017766,15.9893617 C69.2147489,15.9893617 55.9119553,23.7203957 48.7856745,36.1654489 Z M69.6290511,47.2574468 L64.7739702,47.2574468 C63.301883,47.2574468 62.1090766,46.0646404 62.1090766,44.5925532 C62.1090766,43.120466 63.301883,41.9276596 64.7739702,41.9276596 L72.2410021,41.9276596 C73.7130894,41.9276596 74.9058957,43.120466 74.9058957,44.5925532 L74.9058957,46.7258894 C74.9058957,48.1979766 73.7130894,49.390783 72.2410021,49.390783 C70.9511936,49.390783 69.8752872,48.4747702 69.6290511,47.2574468 Z M93.0065638,63.2894468 C91.5803128,67.302066 87.7606319,69.9978723 83.5017766,69.9978723 C79.2432766,69.9978723 75.4232404,67.302066 73.996634,63.2898021 C73.5034511,61.9033468 74.2279468,60.379383 75.6147574,59.8862 C77.0005021,59.3919511 78.5248213,60.1171574 79.0183596,61.5043234 C79.691334,63.3967532 81.4931574,64.6680851 83.5017766,64.6680851 C85.5103957,64.6680851 87.3122191,63.3967532 87.9848383,61.5046787 C88.477666,60.1178681 90.0019851,59.3919511 91.3880851,59.8862 C92.7752511,60.3790277 93.4997468,61.9029915 93.0065638,63.2894468 Z M102.229583,47.2574468 L97.3745021,47.2574468 C97.128266,48.4747702 96.0523596,49.390783 94.7625511,49.390783 C93.2904638,49.390783 92.0976574,48.1979766 92.0976574,46.7258894 L92.0976574,44.5925532 C92.0976574,43.120466 93.2904638,41.9276596 94.7625511,41.9276596 L102.229583,41.9276596 C103.70167,41.9276596 104.894477,43.120466 104.894477,44.5925532 C104.894477,46.0646404 103.701315,47.2574468 102.229583,47.2574468 Z" id="Shape" fill="#FFD166"></path>
                <path d="M139.464543,55.962766 C139.464543,47.2439447 137.459121,38.9852617 133.887453,31.6216277 C124.817577,12.9233128 105.641002,0 83.5017766,0 C61.3629064,0 42.1859766,12.9229574 33.1161,31.620917 C29.5440766,38.9845511 27.5386553,47.2435894 27.5386553,55.962766 C27.5386553,80.2598447 43.1048319,100.986677 64.7867617,108.703143 C69.1824149,110.267613 73.8292787,111.296617 78.6495383,111.712696 L69.3913426,125.52324 C68.5993362,126.703966 68.8743532,128.298994 70.0159936,129.14643 C73.2209723,131.526002 76.919134,132.988496 80.8365277,133.444726 L80.8365277,164.335106 C80.8365277,165.807194 82.029334,167 83.5014213,167 C84.9735085,167 86.1663149,165.807194 86.1663149,164.335106 L86.1663149,133.444726 C90.0837085,132.988496 93.7818702,131.526357 96.9864936,129.146785 C98.128134,128.298994 98.4027957,126.704321 97.6111447,125.523596 L88.3533043,111.712696 C93.1735638,111.296617 97.8204277,110.267613 102.216081,108.703143 C123.898366,100.986321 139.464543,80.2598447 139.464543,55.962766 Z M83.5017766,128.270213 C80.6126766,128.270213 77.8315936,127.570234 75.3354766,126.228904 L83.5017766,114.046787 L91.6680766,126.22926 C89.1719596,127.570234 86.3908766,128.270213 83.5017766,128.270213 Z M83.5017766,106.595745 C55.5825745,106.595745 32.8687979,83.8819681 32.8687979,55.962766 C32.8687979,28.0435638 55.5825745,5.32978723 83.5017766,5.32978723 C111.420979,5.32978723 134.134755,28.0435638 134.134755,55.962766 C134.134755,83.8819681 111.420979,106.595745 83.5017766,106.595745 Z" id="Shape" fill="#073B4C"></path>
                <path d="M53.5615191,110.191219 C50.6404404,110.873787 47.6234255,111.219868 44.5943298,111.219868 C22.944734,111.219868 5.33156383,93.6066979 5.33156383,71.9571021 C5.33156383,58.2286362 12.6568234,45.3127851 24.4488,38.2490404 C25.6867319,37.5074894 26.1024553,35.9202787 25.4049638,34.6684894 C25.3911064,34.643617 25.3797362,34.618034 25.3651681,34.593517 C24.6090489,33.3310681 22.9724489,32.9199638 21.7096447,33.6771489 C15.2144106,37.5678936 9.77554043,43.0867106 5.98144255,49.6373745 C2.06937872,56.3912809 0.00177659574,64.1091681 0.00177659574,71.9571021 C0.00177659574,94.9174702 17.4451043,113.877655 39.7751362,116.288496 L33.0226511,126.361794 C32.2306447,127.542874 32.506017,129.137547 33.6476574,129.984983 C36.1117957,131.814877 38.9362277,132.973572 41.9297915,133.405996 L41.9297915,164.335106 C41.9297915,165.807194 43.1225979,167 44.5946851,167 C46.0667723,167 47.2595787,165.807194 47.2595787,164.335106 L47.2595787,133.405996 C50.2534979,132.973572 53.0779298,131.814521 55.5424234,129.984628 C56.6840638,129.136836 56.9587255,127.542164 56.1670745,126.361438 L49.4138787,116.287785 C51.2213872,116.093426 53.0132617,115.792826 54.7745787,115.381721 C56.2075809,115.047011 57.098366,113.613298 56.7636553,112.180296 C56.7569043,112.15116 56.7469553,112.1238 56.7391383,112.095374 C56.3671191,110.712828 54.9632532,109.865036 53.5615191,110.191219 Z M44.5943298,128.270213 C42.6308362,128.270213 40.7337872,127.841343 39.0001851,127.016291 L44.5943298,118.670911 L50.1888298,127.015936 C48.455583,127.841343 46.5578234,128.270213 44.5943298,128.270213 Z" id="Shape" fill="#073B4C"></path>
                <path d="M166.998223,71.9571021 C166.998223,64.1091681 164.930621,56.3909255 161.018557,49.6373745 C157.22446,43.0867106 151.785945,37.5678936 145.290355,33.6771489 C144.027551,32.9206745 142.391306,33.3307128 141.634832,34.593517 C141.620264,34.6176787 141.609249,34.6429064 141.595391,34.6674234 C140.897189,35.9195681 141.312913,37.5074894 142.5512,38.2490404 C154.343177,45.3127851 161.668436,58.2286362 161.668436,71.9571021 C161.668436,93.6066979 144.055266,111.219868 122.40567,111.219868 C119.376574,111.219868 116.359204,110.873787 113.438481,110.191219 C112.035326,109.864326 110.633591,110.712117 110.261928,112.094309 C110.254111,112.123089 110.244162,112.150804 110.237411,112.17994 C109.9027,113.612943 110.79313,115.0463 112.226487,115.381366 C113.987804,115.792826 115.779679,116.09307 117.587187,116.28743 L110.833991,126.361083 C110.041985,127.541809 110.317002,129.136836 111.458643,129.984272 C113.923847,131.814877 116.7497,132.974283 119.744685,133.406351 L119.744685,164.335106 C119.744685,165.807194 120.937491,167 122.409579,167 C123.881666,167 125.074472,165.807194 125.074472,164.335106 L125.074472,133.40564 C128.066615,132.972862 130.889626,131.814166 133.353053,129.984983 C134.494694,129.137191 134.769711,127.542874 133.97806,126.361794 L127.225574,116.288496 C149.555251,113.877655 166.998223,94.9171149 166.998223,71.9571021 Z M122.40567,128.270213 C120.442177,128.270213 118.544417,127.841343 116.81117,127.015936 L122.40567,118.670911 L127.999815,127.016291 C126.266213,127.841343 124.369164,128.270213 122.40567,128.270213 Z" id="Shape" fill="#073B4C"></path>
                <path d="M91.3880851,59.8862 C90.0019851,59.3915957 88.477666,60.1175128 87.9848383,61.5046787 C87.3118638,63.3967532 85.5103957,64.6680851 83.5017766,64.6680851 C81.4931574,64.6680851 79.6909787,63.3967532 79.0183596,61.5043234 C78.5248213,60.1175128 77.0005021,59.3923064 75.6147574,59.8862 C74.2283021,60.379383 73.5038064,61.9033468 73.996634,63.2898021 C75.4232404,67.302066 79.2432766,69.9978723 83.5017766,69.9978723 C87.7606319,69.9978723 91.5803128,67.302066 93.0065638,63.2894468 C93.4997468,61.9029915 92.7752511,60.3790277 91.3880851,59.8862 Z" id="Shape" fill="#073B4C"></path>
                <path d="M74.9055404,46.7258894 L74.9055404,44.5925532 C74.9055404,43.120466 73.712734,41.9276596 72.2406468,41.9276596 L64.7736149,41.9276596 C63.3015277,41.9276596 62.1087213,43.120466 62.1087213,44.5925532 C62.1087213,46.0646404 63.3015277,47.2574468 64.7736149,47.2574468 L69.6286957,47.2574468 C69.8749319,48.4747702 70.9508383,49.390783 72.2406468,49.390783 C73.712734,49.390783 74.9055404,48.1976213 74.9055404,46.7258894 Z" id="Shape" fill="#073B4C"></path>
                <path d="M102.229583,41.9276596 L94.7625511,41.9276596 C93.2904638,41.9276596 92.0976574,43.120466 92.0976574,44.5925532 L92.0976574,46.7258894 C92.0976574,48.1979766 93.2904638,49.390783 94.7625511,49.390783 C96.0523596,49.390783 97.1279106,48.4747702 97.3745021,47.2574468 L102.229583,47.2574468 C103.70167,47.2574468 104.894477,46.0646404 104.894477,44.5925532 C104.894477,43.120466 103.701315,41.9276596 102.229583,41.9276596 Z" id="Shape" fill="#073B4C"></path>
                <path d="M86.1666702,13.3244681 C86.1666702,11.8523809 84.9738638,10.6595745 83.5017766,10.6595745 C67.3091723,10.6595745 52.2340468,19.4178362 44.1601298,33.5172553 C43.428883,34.7942723 43.8716106,36.4227 45.1486277,37.1539468 C45.5661277,37.3930766 46.0212915,37.5064234 46.4704149,37.5064234 C47.3946,37.5064234 48.2932021,37.0253213 48.7856745,36.1654489 C55.9119553,23.7203957 69.2147489,15.9893617 83.5017766,15.9893617 C84.9735085,15.9893617 86.1666702,14.7965553 86.1666702,13.3244681 Z" id="Shape" fill="#FFFFFF"></path>
                <path d="M43.086,42.1142021 C41.667566,41.7237064 40.2004532,42.559417 39.8106681,43.9785617 C38.7408021,47.8746362 38.1985851,51.9064426 38.1985851,55.962766 C38.1985851,57.4348532 39.3913915,58.6276596 40.8634787,58.6276596 C42.335566,58.6276596 43.5283723,57.4348532 43.5283723,55.962766 C43.5283723,52.3836362 44.0069872,48.8261809 44.9503596,45.389534 C45.3401447,43.9703894 44.5055,42.5039872 43.086,42.1142021 Z" id="Shape" fill="#FFFFFF"></path>
            </g>
        </g>
    </g>
</svg>