<?xml version="1.0" encoding="UTF-8"?>
<svg width="409px" height="411px" viewBox="0 0 409 411" version="1.1" xmlns="http://www.w3.org/2000/svg" xmlns:xlink="http://www.w3.org/1999/xlink">
    <!-- Generator: Sketch 41.2 (35397) - http://www.bohemiancoding.com/sketch -->
    <title>Artboard</title>
    <desc>Created with Sketch.</desc>
    <defs></defs>
    <g id="Page-1" stroke="none" stroke-width="1" fill="none" fill-rule="evenodd">
        <g id="Artboard" fill="#FFFFFF">
            <g id="snapchat" transform="translate(8.000000, 17.000000)">
                <g id="g4127">
                    <path d="M198.23192,0.745656 C174.07662,0.911016 149.09862,7.321816 129.51312,22.808156 C114.84612,34.38581 103.31396,49.72932 96.04441,66.87066 C96.03351,66.91216 96.02311,66.95386 96.01321,66.99566 C89.08963,84.65772 89.7308,103.45474 90.66946,120.87066 C90.66995,120.88126 90.66897,120.89136 90.66946,120.90186 C91.23992,133.14297 92.58866,144.99368 91.45071,156.24561 C91.35881,156.68363 91.35471,156.79337 91.29446,157.05811 C85.8493,158.04512 79.92246,157.68713 74.04446,156.55811 C74.01326,156.55782 73.98196,156.55782 73.95076,156.55811 C69.92437,155.86505 65.62279,154.20582 60.76326,152.83936 C60.68046,152.81636 60.59711,152.79556 60.51326,152.77686 C55.79693,151.69862 51.16084,153.07187 47.60701,155.71436 C47.56131,155.74396 47.49716,155.77786 47.45076,155.80806 C47.37976,155.86206 47.30211,155.9093 47.23201,155.96431 C44.33936,157.87991 40.377032,161.09628 40.169512,166.68306 C40.160512,167.04961 40.192012,167.41713 40.263212,167.77681 C40.887852,171.0598 42.907282,173.46024 44.70071,175.02681 C46.49413,176.59338 48.18849,177.628 49.23196,178.43306 C49.31336,178.49816 49.3967,178.56068 49.48196,178.62056 C58.27891,184.5557 68.01477,187.16355 76.48196,190.46431 C76.49096,190.46731 76.50446,190.46131 76.51316,190.46431 C82.37521,193.06162 87.46908,197.1004 88.63816,202.18306 C90.09793,208.61019 87.39136,215.98864 83.85691,223.15181 C83.85291,223.16081 83.86091,223.17441 83.85691,223.18301 C74.32357,242.16866 60.16602,258.6791 42.763162,270.77676 C33.639422,277.07187 23.346637,281.77126 12.606857,284.68316 C12.458708,284.72846 12.312665,284.78056 12.169357,284.83941 C9.965617,285.66927 4.740117,286.21188 1.450607,291.21441 C1.216814,291.56378 1.027325,291.94276 0.888107,292.33941 C-0.221123,295.55621 1.044307,299.00999 2.606857,300.90191 C4.098957,302.70853 5.763527,303.75977 7.200607,304.52691 C7.274107,304.56991 7.345707,304.60931 7.419357,304.65191 C16.462117,309.87799 26.337952,312.14348 35.356862,314.46441 C35.398362,314.47531 35.440062,314.48571 35.481862,314.49561 C41.979962,315.97538 47.9706,316.7659 52.85686,318.87061 C53.09609,319.27295 53.58538,320.92893 54.73186,323.68311 C56.33337,328.68279 57.06138,334.58681 58.91936,340.77686 C59.4274,342.49028 60.92161,343.87242 62.66936,344.24561 C66.77336,345.11754 69.03055,343.70944 69.38811,343.68311 C69.55569,343.67071 69.72263,343.64981 69.88811,343.62061 C84.9883,340.97381 100.05646,338.62678 113.88807,342.12061 C113.89807,342.12361 113.90907,342.11761 113.91907,342.12061 C128.43507,345.94424 141.04997,356.03507 155.26287,364.71436 C155.28787,364.72976 155.29987,364.76146 155.32487,364.77686 L155.32487,364.74566 C164.75907,370.73212 175.66417,376.59416 188.26237,377.02691 L188.26237,377.05811 C188.30437,377.05911 188.34537,377.05711 188.38737,377.05811 C197.90287,377.59707 207.24237,376.99241 216.35607,376.37061 C216.40817,376.37142 216.46027,376.37142 216.51237,376.37061 C224.31617,375.59759 231.89307,373.00059 238.51237,368.74561 C238.60637,368.69211 238.69997,368.64303 238.79357,368.58936 C253.73877,360.02592 267.01937,349.70702 281.57487,343.24561 C281.59587,343.23761 281.61687,343.22191 281.63687,343.21441 C286.35767,341.50284 292.25577,341.59935 298.82437,341.15191 C298.88637,341.14991 298.94937,341.15391 299.01187,341.15191 C311.06457,340.77981 323.14017,341.42605 335.10557,343.02691 C335.52005,343.07911 335.94109,343.07911 336.35557,343.02691 C337.92697,342.84051 339.64447,341.78536 340.48057,340.71441 C341.31667,339.64346 341.55757,338.77123 341.73057,338.15191 C342.07677,336.91327 342.39757,336.32089 341.82457,337.33941 C342.00627,337.02335 342.15327,336.68736 342.26207,336.33941 C344.45917,329.05939 345.65457,322.47144 349.19957,318.37066 C350.79247,316.8135 353.53357,316.0318 356.63707,316.08941 C356.86659,316.09441 357.09648,316.08441 357.32457,316.05821 C367.72697,314.82688 377.12977,311.07125 386.04337,307.87071 C386.14893,307.83251 386.25321,307.79081 386.35597,307.74566 C389.66727,306.30225 394.60127,304.64603 397.98097,299.90191 C397.99897,299.87651 398.02497,299.86501 398.04297,299.83941 L398.01197,299.80821 C400.85477,295.83571 399.53497,290.38352 395.51197,287.90196 L395.57397,287.83946 C395.44647,287.75276 395.32657,287.70351 395.19897,287.62071 C395.16497,287.60211 395.13997,287.57631 395.10497,287.55821 L395.10497,287.58941 C390.27907,284.48935 385.44377,284.05849 382.38627,282.93316 C382.32417,282.91106 382.26167,282.89026 382.19877,282.87066 C361.51157,276.23498 343.62097,261.94955 330.26127,244.55816 C322.84407,234.86687 316.57137,224.33614 312.41747,213.08941 C312.40347,213.04841 312.39947,213.00541 312.38647,212.96441 C310.76027,208.08088 310.67877,202.75539 313.07397,199.52691 C313.10567,199.49611 313.13707,199.46491 313.16797,199.43321 C316.90457,194.06482 323.76147,190.61443 331.07427,187.90196 C331.10427,187.89156 331.13827,187.88116 331.16827,187.87076 C339.25017,185.05919 348.09457,181.7839 355.38697,175.30826 C355.41877,175.27746 355.45007,175.24626 355.48097,175.21456 C356.60927,174.14761 357.96617,172.75854 358.98097,170.68331 C359.99587,168.60808 360.47707,165.37299 359.13727,162.55831 C359.1373,162.54791 359.1373,162.53751 359.13727,162.52711 C357.03287,158.19162 353.36327,155.96091 350.63727,154.33961 C350.62697,154.33958 350.61657,154.33958 350.60627,154.33961 C346.03897,151.67369 340.72467,151.50074 336.10627,152.99586 C336.09627,152.99886 336.08527,152.99286 336.07527,152.99586 C336.04427,153.00596 336.01227,153.01686 335.98127,153.02706 C330.99207,154.54541 326.91887,156.36097 323.13747,156.83956 C323.05357,156.85826 322.97025,156.87906 322.88747,156.90206 C317.51377,157.85983 312.31017,158.08985 308.26247,156.58956 C308.22447,155.98307 308.20547,154.79943 308.04377,153.33956 L308.07477,153.33956 C307.77597,144.42426 308.53127,135.23352 308.66847,125.71456 C308.66877,125.69336 308.66817,125.67326 308.66847,125.65206 C309.07967,111.18888 309.66327,96.29911 307.54347,81.30831 C307.53447,81.23521 307.52437,81.16224 307.51247,81.08956 C302.89707,55.80203 286.82547,34.0222 266.44997,19.527056 C251.63787,9.017186 234.05277,3.151246 216.19997,1.495806 C216.18997,1.494806 216.17897,1.496806 216.16897,1.495806 C210.17777,0.890936 204.19487,0.676356 198.23147,0.745806 L198.23192,0.745656 Z" id="path12604"></path>
                </g>
            </g>
        </g>
    </g>
</svg>