<?xml version="1.0" encoding="UTF-8"?>
<svg width="512px" height="513px" viewBox="0 0 512 513" version="1.1" xmlns="http://www.w3.org/2000/svg" xmlns:xlink="http://www.w3.org/1999/xlink">
    <!-- Generator: Sketch 41.2 (35397) - http://www.bohemiancoding.com/sketch -->
    <title>Artboard</title>
    <desc>Created with Sketch.</desc>
    <defs></defs>
    <g id="Page-1" stroke="none" stroke-width="1" fill="none" fill-rule="evenodd">
        <g id="Artboard" fill="#086788">
            <g id="strategie" transform="translate(35.000000, 39.000000)">
                <g id="Layer_1">
                    <path d="M426.537186,138.194698 L413.405523,134.911722 L413.405523,14.5705317 C413.405523,6.66716667 406.975102,0.237896825 399.07032,0.237896825 L384.273082,0.237896825 C377.550211,0.237896825 371.909748,4.89461905 370.368766,11.1474127 C314.440016,62.8021667 233.245557,81.6098571 191.905523,81.6098571 L66.1264023,81.6098571 C51.0687285,81.6098571 38.112709,90.7667222 32.5284863,103.801738 L21.7338223,103.801738 C9.74946094,103.802603 0,113.550317 0,125.532532 L0,214.301786 C0,226.284 9.74946094,236.031714 21.7338223,236.031714 L32.5284863,236.031714 C38.112709,249.06673 51.0687285,258.223595 66.1264023,258.223595 L67.8845586,258.223595 L102.008537,421.98831 C98.707668,422.521198 96.1837793,425.375095 96.1837793,428.825897 C96.1837793,432.655603 99.2891055,435.761238 103.120363,435.761238 L199.304143,435.761238 C203.134535,435.761238 206.240727,432.656468 206.240727,428.825897 C206.240727,424.995325 203.1354,421.890556 199.304143,421.890556 L197.545986,421.890556 L163.442773,258.22273 L191.905523,258.22273 C233.246422,258.22273 314.440016,277.030421 370.368766,328.685175 C371.909748,334.937968 377.550211,339.59469 384.273082,339.59469 L399.07032,339.59469 C406.975102,339.59469 413.405523,333.165421 413.405523,325.262056 L413.405523,204.920865 L426.537186,201.637889 C436.230406,199.215667 443,190.546706 443,180.55677 L443,159.274952 C443,149.285881 436.230406,140.617786 426.537186,138.194698 Z M29.6074551,222.161032 L21.7346875,222.161032 C17.3998633,222.161032 13.873168,218.634968 13.873168,214.300921 L13.873168,125.532532 C13.873168,121.198484 17.3998633,117.672421 21.7346875,117.672421 L29.6074551,117.672421 C29.6057246,117.826405 29.5953418,117.979524 29.5953418,118.134373 L29.5953418,221.698214 C29.5953418,221.853929 29.6048594,222.007048 29.6074551,222.161032 Z M183.374312,421.891421 L116.15858,421.891421 L82.0553672,258.223595 L149.2711,258.223595 L183.374312,421.891421 Z M177.57032,244.353778 L66.1264023,244.353778 C53.632418,244.353778 43.4676445,234.190825 43.4676445,221.699079 L43.4676445,118.135238 C43.4676445,105.643492 53.632418,95.4805397 66.1264023,95.4805397 L177.57032,95.4805397 L177.57032,244.353778 Z M369.937014,309.921603 C346.176813,290.401087 316.831523,274.088286 284.169791,262.331857 C252.425207,250.906754 218.796143,244.353778 191.904658,244.353778 L191.442623,244.353778 L191.442623,95.4805397 L191.904658,95.4805397 C218.796143,95.4805397 252.425207,88.9275635 284.169791,77.5024603 C316.831523,65.7460317 346.176813,49.4340952 369.937014,29.9127143 L369.937014,309.921603 Z M399.532355,325.262921 C399.532355,325.518119 399.325564,325.724873 399.07032,325.724873 L384.273082,325.724873 C384.017838,325.724873 383.811047,325.518119 383.811047,325.262921 L383.811047,14.5705317 C383.811047,14.3153333 384.017838,14.1085794 384.273082,14.1085794 L399.07032,14.1085794 C399.325564,14.1085794 399.532355,14.3153333 399.532355,14.5705317 L399.532355,325.262921 Z M429.127697,180.557635 C429.127697,184.170206 426.679949,187.306119 423.173154,188.182444 L413.404658,190.623698 L413.404658,149.208889 L423.173154,151.650143 C426.679084,152.526468 429.127697,155.662381 429.127697,159.275817 L429.127697,180.557635 Z" id="Shape"></path>
                </g>
            </g>
        </g>
    </g>
</svg>