<?xml version="1.0" encoding="UTF-8"?>
<svg width="409px" height="411px" viewBox="0 0 409 411" version="1.1" xmlns="http://www.w3.org/2000/svg" xmlns:xlink="http://www.w3.org/1999/xlink">
    <!-- Generator: Sketch 41.2 (35397) - http://www.bohemiancoding.com/sketch -->
    <title>Artboard</title>
    <desc>Created with Sketch.</desc>
    <defs></defs>
    <g id="Page-1" stroke="none" stroke-width="1" fill="none" fill-rule="evenodd">
        <g id="Artboard" fill="#FFFFFF">
            <g id="youtube" transform="translate(41.000000, 6.000000)">
                <g id="g3990">
                    <path d="M282.28891,292.58667 L260.33335,292.58667 L260.43558,279.83556 C260.43558,274.16889 265.08891,269.53333 270.7778,269.53333 L272.1778,269.53333 C277.87558,269.53333 282.54224,274.16889 282.54224,279.83556 L282.28891,292.58667 Z M199.94669,265.26222 C194.3778,265.26222 189.82224,269.00444 189.82224,273.58667 L189.82224,335.6 C189.82224,340.17333 194.3778,343.90667 199.94669,343.90667 C205.5378,343.90667 210.0978,340.17333 210.0978,335.6 L210.0978,273.58667 C210.0978,269 205.5378,265.26222 199.94669,265.26222 Z M333.66665,230.57333 L333.66665,348.54667 C333.66665,376.84444 309.12445,400 279.13335,400 L54.87113,400 C24.86669,400 0.33335,376.84444 0.33335,348.54667 L0.33335,230.57333 C0.33335,202.27556 24.86669,179.11556 54.87113,179.11556 L279.13335,179.11556 C309.12445,179.11556 333.66665,202.27556 333.66665,230.57333 Z M69.83113,361.35556 L69.83113,237.08444 L97.63113,237.09344 L97.63113,218.68011 L23.52446,218.569 L23.52446,236.67122 L46.6578,236.73792 L46.6578,361.3557 L69.84891,361.3557 L69.83113,361.35556 Z M153.16446,255.59556 L129.98669,255.59556 L129.98669,321.95556 C129.98669,331.55556 130.56891,336.35556 129.94229,338.04889 C128.05785,343.19556 119.58674,348.65778 116.28451,338.60444 C115.72451,336.84444 116.21781,331.53333 116.20891,322.41333 L116.11561,255.59556 L93.06672,255.59556 L93.13782,321.36 C93.13782,331.44 92.91115,338.96 93.21782,342.37778 C93.78226,348.40889 93.58226,355.44444 99.17782,359.45778 C109.60448,366.97333 129.59115,358.33778 134.59115,347.6 L134.54675,361.30222 L153.16008,361.32442 L153.16008,255.59554 L153.16446,255.59556 Z M227.31113,331.58667 L227.26223,276.35556 C227.26223,255.30667 211.49779,242.69778 190.12001,259.72889 L190.21331,218.66667 L167.05776,218.70227 L166.94665,360.43561 L185.9822,360.15561 L187.71554,351.32894 C212.05331,373.65338 227.34665,358.36005 227.31109,331.58672 L227.31113,331.58667 Z M299.84891,324.26667 L282.46669,324.35997 C282.46669,325.04886 282.42229,325.84441 282.42229,326.71108 L282.42229,336.40886 C282.42229,341.59553 278.1334,345.82219 272.92451,345.82219 L269.52007,345.82219 C264.30229,345.82219 260.01785,341.59553 260.01785,336.40886 L260.01785,335.3333 L260.01785,324.66664 L260.01785,310.90219 L299.81335,310.90219 L299.81335,295.92441 C299.81335,284.97775 299.53335,274.03553 298.62669,267.77775 C295.78224,247.98219 267.99558,244.83997 253.96002,254.9733 C249.55113,258.13775 246.18669,262.3733 244.23113,268.06664 C242.25335,273.75997 241.27558,281.53775 241.27558,291.41775 L241.27558,324.34664 C241.27958,379.0933 307.7778,371.35553 299.84446,324.26664 L299.84891,324.26667 Z M210.70224,145.47556 C211.8978,148.38222 213.75558,150.73778 216.27558,152.51556 C218.76446,154.26667 221.95113,155.14667 225.76002,155.14667 C229.10224,155.14667 232.06224,154.24444 234.64002,152.38222 C237.20891,150.52889 239.37335,147.76 241.1378,144.06667 L240.70224,153.16 L266.5378,153.16 L266.5378,43.288889 L246.20002,43.288889 L246.20002,128.8 C246.20002,133.43111 242.38669,137.22222 237.72446,137.22222 C233.08891,137.22222 229.26224,133.43111 229.26224,128.8 L229.26224,43.288889 L208.03558,43.288889 L208.03558,117.39556 C208.03558,126.83556 208.20446,133.12889 208.48446,136.32 C208.78224,139.48889 209.50669,142.52889 210.70224,145.47556 Z M132.40891,83.42222 C132.40891,72.87556 133.28891,64.64 135.03558,58.70222 C136.79558,52.78667 139.95558,48.03111 144.53335,44.44444 C149.0978,40.839999 154.94224,39.035559 162.04891,39.035559 C168.02669,39.035559 173.14669,40.208889 177.42669,42.506669 C181.72446,44.81778 185.03558,47.81778 187.3378,51.52 C189.68002,55.23556 191.27113,59.05333 192.12002,62.96 C192.98669,66.92 193.41335,72.89333 193.41335,80.95111 L193.41335,108.73778 C193.41335,118.92889 193.00446,126.42667 192.21335,131.18667 C191.42669,135.96 189.7378,140.38667 187.12446,144.53778 C184.54224,148.64444 181.21335,151.71556 177.1778,153.67556 C173.0978,155.65333 168.43113,156.62222 163.16002,156.62222 C157.27113,156.62222 152.31113,155.80889 148.22224,154.11111 C144.12002,152.42222 140.95113,149.87556 138.69335,146.49333 C136.41335,143.10667 134.80891,138.98222 133.84002,134.17333 C132.86669,129.36889 132.40446,122.14222 132.40446,112.51111 L132.40446,83.42222 L132.40891,83.42222 Z M152.64446,127.06667 C152.64446,133.28889 157.27558,138.36889 162.91558,138.36889 C168.56002,138.36889 173.16891,133.28889 173.16891,127.06667 L173.16891,68.57778 C173.16891,62.36444 168.56002,57.28444 162.91558,57.28444 C157.27558,57.28444 152.64446,62.36444 152.64446,68.57778 L152.64446,127.06667 L152.64446,127.06667 Z M81.14224,156.6 L105.51558,156.6 L105.55998,72.33333 L134.35998,0.146669 L107.7022,0.146669 L92.39109,53.76444 L76.8622,-9.99999997e-07 L50.47998,-9.99999997e-07 L81.11998,72.37333 L81.16438,156.6 L81.14224,156.6 Z" id="YouTube"></path>
                </g>
            </g>
        </g>
    </g>
</svg>